<?xml version="1.0" encoding="UTF-8" standalone="no"?>
<!-- Created with Inkscape (http://www.inkscape.org/) -->

<svg
   width="512"
   height="512"
   viewBox="0 0 512 512"
   version="1.1"
   id="svg1"
   xml:space="preserve"
   inkscape:version="1.4.3 (0d15f75042, 2025-12-25)"
   sodipodi:docname="icon.svg"
   inkscape:export-filename="icon-256.png"
   inkscape:export-xdpi="48"
   inkscape:export-ydpi="48"
   xmlns:inkscape="http://www.inkscape.org/namespaces/inkscape"
   xmlns:sodipodi="http://sodipodi.sourceforge.net/DTD/sodipodi-0.dtd"
   xmlns:xlink="http://www.w3.org/1999/xlink"
   xmlns="http://www.w3.org/2000/svg"
   xmlns:svg="http://www.w3.org/2000/svg"><sodipodi:namedview
     id="namedview1"
     pagecolor="#505050"
     bordercolor="#ffffff"
     borderopacity="1"
     inkscape:showpageshadow="0"
     inkscape:pageopacity="0"
     inkscape:pagecheckerboard="1"
     inkscape:deskcolor="#505050"
     inkscape:document-units="mm"
     inkscape:zoom="1.5772155"
     inkscape:cx="239.02885"
     inkscape:cy="245.36914"
     inkscape:window-width="1920"
     inkscape:window-height="1052"
     inkscape:window-x="0"
     inkscape:window-y="0"
     inkscape:window-maximized="1"
     inkscape:current-layer="layer1" /><defs
     id="defs1"><linearGradient
       id="linearGradient11"
       inkscape:collect="always"><stop
         style="stop-color:#c6c6c6;stop-opacity:1;"
         offset="0"
         id="stop11" /><stop
         style="stop-color:#6f6f6f;stop-opacity:1;"
         offset="1"
         id="stop12" /></linearGradient><linearGradient
       id="linearGradient9"
       inkscape:collect="always"><stop
         style="stop-color:#d0c300;stop-opacity:1;"
         offset="0"
         id="stop9" /><stop
         style="stop-color:#986d00;stop-opacity:1;"
         offset="1"
         id="stop10" /></linearGradient><linearGradient
       inkscape:collect="always"
       xlink:href="#linearGradient9"
       id="linearGradient10"
       x1="202.19505"
       y1="176.64047"
       x2="306.2067"
       y2="322.34644"
       gradientUnits="userSpaceOnUse"
       gradientTransform="matrix(2.7374089,0,0,2.7374089,-444.77667,-444.77667)" /><linearGradient
       inkscape:collect="always"
       xlink:href="#linearGradient11"
       id="linearGradient12"
       x1="207.57497"
       y1="196.59097"
       x2="306.2067"
       y2="196.36681"
       gradientUnits="userSpaceOnUse"
       gradientTransform="matrix(2.7374089,0,0,2.7374089,-444.77667,-444.77667)" /><linearGradient
       inkscape:collect="always"
       xlink:href="#linearGradient11"
       id="linearGradient13"
       x1="239.97989"
       y1="193.37878"
       x2="269.14523"
       y2="306.2359"
       gradientUnits="userSpaceOnUse"
       gradientTransform="matrix(2.7374089,0,0,2.7374089,-444.77667,-444.77667)" /><linearGradient
       inkscape:collect="always"
       xlink:href="#linearGradient11"
       id="linearGradient14"
       x1="239.97989"
       y1="193.37878"
       x2="269.14523"
       y2="306.2359"
       gradientUnits="userSpaceOnUse"
       gradientTransform="matrix(2.7374089,0,0,2.7374089,-444.77667,-444.77667)" /><linearGradient
       inkscape:collect="always"
       xlink:href="#linearGradient11"
       id="linearGradient15"
       x1="239.97989"
       y1="193.37878"
       x2="269.14523"
       y2="306.2359"
       gradientUnits="userSpaceOnUse"
       gradientTransform="matrix(2.7374089,0,0,2.7374089,-444.77667,-444.77667)" /><linearGradient
       inkscape:collect="always"
       xlink:href="#linearGradient11"
       id="linearGradient16"
       x1="239.97989"
       y1="193.37878"
       x2="269.14523"
       y2="306.2359"
       gradientUnits="userSpaceOnUse"
       gradientTransform="matrix(2.7374089,0,0,2.7374089,-444.77667,-444.77667)" /><linearGradient
       inkscape:collect="always"
       xlink:href="#linearGradient11"
       id="linearGradient17"
       x1="239.97989"
       y1="193.37878"
       x2="269.14523"
       y2="306.2359"
       gradientUnits="userSpaceOnUse"
       gradientTransform="matrix(2.7374089,0,0,2.7374089,-444.77667,-444.77667)" /></defs><g
     inkscape:label="Layer 1"
     inkscape:groupmode="layer"
     id="layer1"
     transform="matrix(0.85915566,0.37021043,-0.37021043,0.85915566,123.21201,-42.767443)"><path
       style="fill:url(#linearGradient16);fill-opacity:1;stroke-width:2.73741"
       d="m 272.42445,81.888581 c 2.58086,-2.580857 8.36878,-2.580857 10.94964,0 0.49024,0.490242 0,1.386634 0,2.079938 V 436.66898 H 272.42445 V 83.968519 c 0,-0.693304 -0.49024,-1.589696 0,-2.079938 z"
       id="path6"
       sodipodi:nodetypes="sssccss"
       inkscape:label="String5" /><path
       style="fill:url(#linearGradient17);fill-opacity:1;stroke-width:2.73741"
       d="m 294.32372,81.888581 c 2.58086,-2.580857 8.36878,-2.580857 10.94964,0 0.49024,0.490242 0,1.386634 0,2.079938 V 436.66898 H 294.32372 V 83.968519 c 0,-0.693304 -0.49024,-1.589696 0,-2.079938 z"
       id="path7"
       sodipodi:nodetypes="sssccss"
       inkscape:label="String4" /><path
       style="fill:url(#linearGradient15);fill-opacity:1;stroke-width:2.73741"
       d="m 250.52518,81.888581 c 2.58086,-2.580857 8.36878,-2.580857 10.94964,0 0.49024,0.490242 0,1.386634 0,2.079938 V 436.66898 H 250.52518 V 83.968519 c 0,-0.693304 -0.49024,-1.589696 0,-2.079938 z"
       id="path5"
       sodipodi:nodetypes="sssccss"
       inkscape:label="String3" /><path
       style="fill:url(#linearGradient14);fill-opacity:1;stroke-width:2.73741"
       d="m 228.62591,81.888581 c 2.58086,-2.580857 8.36878,-2.580857 10.94964,0 0.49024,0.490242 0,1.386634 0,2.079938 V 436.66898 H 228.62591 V 83.968519 c 0,-0.693304 -0.49024,-1.589696 0,-2.079938 z"
       id="path8"
       sodipodi:nodetypes="sssccss"
       inkscape:label="String2" /><path
       style="fill:url(#linearGradient13);fill-opacity:1;stroke-width:2.73741"
       d="m 206.72664,81.888581 c 2.58086,-2.580857 8.36878,-2.580857 10.94963,0 0.49025,0.490242 0,1.386634 0,2.079938 V 436.66898 H 206.72664 V 83.968519 c 0,-0.693304 -0.49024,-1.589696 0,-2.079938 z"
       id="path9"
       sodipodi:nodetypes="sssccss"
       inkscape:label="String1" /><path
       id="path4"
       style="fill:url(#linearGradient12);fill-opacity:1;stroke-width:2.73782"
       d="m 391.87676,103.57015 c 3.20778,-1.77357 5.84776,-5.647471 5.84711,-9.312916 -6.6e-4,-3.666294 -2.643,-7.539536 -5.85182,-9.312966 -1.20736,-0.667271 -4.13847,0 -4.13847,0 l -263.47407,5.2e-4 c 0,0 -2.93121,-0.66801 -4.13846,-5.2e-4 -3.20729,1.773348 -5.84621,5.646617 -5.84621,9.311515 0,3.66487 2.63895,7.538137 5.84621,9.311487 1.20725,0.66749 4.13846,3e-5 4.13846,3e-5 l 263.47407,0.003 c 0,0 2.93456,0.66833 4.14318,1.1e-4 z"
       sodipodi:nodetypes="sascssssccs"
       inkscape:label="LyreCross" /><path
       id="path2"
       style="opacity:1;fill:url(#linearGradient10);fill-opacity:1;stroke-width:2.73741"
       d="m 213.98493,501.42134 c -12.36315,-1.37368 -24.53528,-4.47894 -36.40753,-8.19169 -12.34063,-3.8592 -24.46625,-8.62563 -35.95242,-14.56302 -3.99987,-2.06759 -7.64175,-4.76772 -11.37736,-7.28151 -8.93928,-6.01551 -18.15698,-11.71449 -26.39546,-18.65886 -5.41309,-4.56279 -10.430186,-9.62629 -15.01811,-15.01811 -5.211205,-6.12435 -9.944979,-12.68901 -14.107894,-19.56902 -4.565642,-7.54561 -8.635211,-15.44545 -11.832449,-23.6649 -2.802532,-7.20478 -4.718417,-14.74774 -6.37132,-22.29962 -1.706445,-7.79655 -2.851613,-15.72291 -3.640753,-23.6649 -0.660647,-6.64886 -0.966963,-13.34276 -0.910189,-20.02412 0.06187,-7.29544 0.357205,-14.61877 1.365283,-21.84452 1.17996,-8.45777 3.094367,-16.82504 5.461131,-25.03018 3.710503,-12.86369 8.675012,-25.34444 13.652826,-37.77279 7.273077,-18.15904 16.087122,-35.6671 23.664872,-53.70112 6.962103,-16.56894 13.663313,-33.25142 20.024143,-50.06034 4.78894,-12.65512 9.75679,-25.27003 13.65283,-38.22791 2.74381,-9.125677 6.49806,-18.237142 6.82641,-27.760724 0.24418,-7.078639 0.47505,-15.170036 -3.64075,-20.934335 -2.01208,-2.817971 -5.70156,-5.659647 -9.10188,-5.006036 -8.67877,1.668232 -8.41965,17.790967 -16.83849,20.47924 C 99.851464,70.92159 90.732881,67.831411 85.193296,62.71065 80.225282,58.118236 77.806973,50.338958 78.366883,43.596693 79.11436,34.5956 85.122123,26.262106 91.564615,19.931793 96.84119,14.747113 103.98306,11.359898 111.13367,9.4646259 c 5.42746,-1.4385357 11.33944,-1.5896681 16.83848,-0.4550942 6.71361,1.3851563 13.08285,4.6593983 18.65887,8.6467903 3.92736,2.808445 7.29015,6.479365 10.01207,10.467167 5.28016,7.735808 9.81284,16.339566 11.83242,25.485276 2.25702,10.220938 0.68676,20.956864 0,31.401474 -0.5321,8.092356 -1.41554,16.205711 -3.18566,24.119991 -8.06304,36.0502 -21.49859,70.7061 -33.67694,105.58184 -5.34997,15.32092 -13.04132,29.84826 -17.29358,45.50939 -3.3458,12.32267 -5.82923,25.01554 -6.37132,37.77282 -0.54926,12.92632 0.68148,25.98967 3.18566,38.68301 1.94076,9.83737 4.96596,19.53664 9.10188,28.67091 4.2388,9.36142 9.50021,18.37778 15.9283,26.39546 5.77196,7.19931 12.65707,13.55773 20.02414,19.11396 4.0713,3.07055 8.33624,6.19711 13.19771,7.7366 3.48291,1.10293 12.76279,3.78978 16.39708,4.16267 18.69894,1.9186 31.78986,3.32609 50.50177,5.11373 6.55771,0.62648 13.1279,1.03512 19.71548,1.03512 6.58754,0 13.15774,-0.40878 19.71544,-1.03512 18.71192,-1.78764 31.80284,-3.19513 50.50178,-5.11373 3.63429,-0.37289 12.91416,-3.05977 16.39708,-4.16267 4.86147,-1.53949 9.12641,-4.66605 13.1977,-7.7366 7.36708,-5.55623 14.25218,-11.91465 20.02415,-19.11396 6.42809,-8.01768 11.6895,-17.03404 15.92829,-26.39546 4.13593,-9.13427 7.16112,-18.83354 9.10189,-28.67091 2.50418,-12.69334 3.73492,-25.75669 3.18566,-38.68301 -0.54209,-12.75728 -3.02552,-25.45015 -6.37132,-37.77282 -4.25226,-15.66113 -11.94362,-30.18847 -17.29358,-45.50939 -12.17835,-34.87574 -25.61391,-69.53164 -33.67695,-105.58184 -1.77011,-7.91428 -2.65356,-16.027635 -3.18566,-24.119991 -0.68676,-10.44461 -2.25702,-21.180536 0,-31.401474 2.01958,-9.14571 6.55227,-17.749468 11.83243,-25.485276 2.72191,-3.987802 6.08471,-7.658722 10.01207,-10.467167 5.57602,-3.987392 11.94526,-7.261634 18.65886,-8.6467903 5.49905,-1.1345739 11.41103,-0.9834415 16.83849,0.4550942 7.1506,1.8952721 14.29248,5.2824871 19.56905,10.4671671 6.44249,6.330313 12.45026,14.663807 13.19773,23.6649 0.55991,6.742265 -1.8584,14.521543 -6.82641,19.113957 -5.53959,5.120761 -14.65817,8.21094 -21.84452,5.916225 -8.41885,-2.688273 -8.15973,-18.811008 -16.83849,-20.47924 -3.40033,-0.653611 -7.08981,2.188065 -9.10188,5.006036 -4.11581,5.764299 -3.8848,13.855696 -3.64076,20.934335 0.32835,9.523582 4.0826,18.635047 6.82642,27.760724 3.89604,12.95788 8.86389,25.57279 13.65282,38.22791 6.36084,16.80892 13.06204,33.4914 20.02415,50.06034 7.57775,18.03402 16.39179,35.54208 23.66487,53.70112 4.97781,12.42835 9.94232,24.9091 13.65283,37.77279 2.36676,8.20514 4.28117,16.57241 5.46113,25.03018 1.00808,7.22575 1.30328,14.54908 1.36528,21.84452 0.0567,6.68136 -0.24965,13.37526 -0.91019,20.02412 -0.78914,7.94199 -1.93431,15.86835 -3.64075,23.6649 -1.6529,7.55188 -3.56879,15.09484 -6.37132,22.29962 -3.19724,8.21945 -7.26681,16.11929 -11.83245,23.6649 -4.16292,6.88001 -8.89669,13.44467 -14.10789,19.56902 -4.58793,5.39182 -9.60503,10.45532 -15.01811,15.01811 -8.23848,6.94437 -17.45619,12.64335 -26.39547,18.65886 -3.7356,2.51379 -7.37748,5.21392 -11.37735,7.28151 -11.48617,5.93739 -23.6118,10.70382 -35.95242,14.56302 -11.87225,3.71275 -24.04439,6.81801 -36.40754,8.19169 -27.83874,3.09319 -56.19142,3.09319 -84.03016,0 z"
       sodipodi:nodetypes="cccccccccccccccccccccccccccccccccccccccccccccccccccccccccccccccccccccccccccccccccccc"
       inkscape:label="LyreBase" /></g></svg>
