<?xml version="1.0" encoding="UTF-8" standalone="no"?>
<svg
   viewBox="0 0 100 100"
   fill="currentColor"
   version="1.1"
   id="svg1"
   sodipodi:docname="pause.svg"
   width="100"
   height="100"
   inkscape:version="1.4.3 (0d15f75042, 2025-12-25)"
   xmlns:inkscape="http://www.inkscape.org/namespaces/inkscape"
   xmlns:sodipodi="http://sodipodi.sourceforge.net/DTD/sodipodi-0.dtd"
   xmlns="http://www.w3.org/2000/svg"
   xmlns:svg="http://www.w3.org/2000/svg">
  <defs
     id="defs1" />
  <sodipodi:namedview
     id="namedview1"
     pagecolor="#505050"
     bordercolor="#ffffff"
     borderopacity="1"
     inkscape:showpageshadow="0"
     inkscape:pageopacity="0"
     inkscape:pagecheckerboard="1"
     inkscape:deskcolor="#505050"
     inkscape:zoom="6.2166471"
     inkscape:cx="32.252112"
     inkscape:cy="42.788338"
     inkscape:window-width="1920"
     inkscape:window-height="1052"
     inkscape:window-x="0"
     inkscape:window-y="0"
     inkscape:window-maximized="1"
     inkscape:current-layer="svg1" />
  <path
     d="M 13.875,3 H 31.5 a 5.875,5.875 0 0 1 5.875,5.875 v 82.25 A 5.875,5.875 0 0 1 31.5,97 H 13.875 A 5.875,5.875 0 0 1 8,91.125 V 8.875 A 5.875,5.875 0 0 1 13.875,3 Z M 66.75,3 h 17.625 a 5.875,5.875 0 0 1 5.875,5.875 v 82.25 A 5.875,5.875 0 0 1 84.375,97 H 66.75 A 5.875,5.875 0 0 1 60.875,91.125 V 8.875 A 5.875,5.875 0 0 1 66.75,3 Z"
     id="path1"
     style="fill:currentColor;stroke-width:5.875" />
</svg>
