<?xml version="1.0" encoding="UTF-8" standalone="no"?>
<svg
   viewBox="0 0 100 100"
   fill="currentColor"
   width="100"
   height="100"
   version="1.1"
   id="svg2"
   sodipodi:docname="settings.svg"
   inkscape:version="1.4.3 (0d15f75042, 2025-12-25)"
   xmlns:inkscape="http://www.inkscape.org/namespaces/inkscape"
   xmlns:sodipodi="http://sodipodi.sourceforge.net/DTD/sodipodi-0.dtd"
   xmlns="http://www.w3.org/2000/svg"
   xmlns:svg="http://www.w3.org/2000/svg">
  <defs
     id="defs2" />
  <sodipodi:namedview
     id="namedview2"
     pagecolor="#505050"
     bordercolor="#ffffff"
     borderopacity="1"
     inkscape:showpageshadow="0"
     inkscape:pageopacity="0"
     inkscape:pagecheckerboard="1"
     inkscape:deskcolor="#505050"
     inkscape:zoom="5.6568543"
     inkscape:cx="1.0606602"
     inkscape:cy="71.064231"
     inkscape:window-width="1920"
     inkscape:window-height="1052"
     inkscape:window-x="0"
     inkscape:window-y="0"
     inkscape:window-maximized="1"
     inkscape:current-layer="svg2" />
  <path
     id="path3"
     style="fill:currentColor;stroke-width:1.27027"
     d="m 44.918919,3 c -2.806204,0 -5.081081,2.2748775 -5.081081,5.0810812 v 8.0036938 c -3.401335,0.98713 -6.680979,2.349519 -9.780089,4.063873 l -5.716217,-5.716215 c -1.975744,-1.936619 -5.139751,-1.936619 -7.115497,0 l -2.793602,2.793602 c -1.936619,1.975746 -1.936619,5.139753 0,7.115497 l 5.716215,5.716217 c -1.714354,3.09911 -3.076743,6.378754 -4.063873,9.780089 H 8.0810812 C 5.2748775,39.837838 3,42.112715 3,44.918919 v 10.162162 c 0,2.806204 2.2748775,5.081081 5.0810812,5.081081 h 8.0036938 c 0.98713,3.401335 2.349519,6.680979 4.063873,9.780089 l -5.716215,5.716216 c -1.936619,1.975745 -1.936619,5.139752 0,7.115498 l 2.793602,2.793602 c 1.975746,1.936619 5.139753,1.936619 7.115497,0 l 5.716217,-5.716215 c 3.09911,1.714353 6.378754,3.076742 9.780089,4.063873 v 8.003693 C 39.837838,94.725123 42.112715,97 44.918919,97 h 10.162162 c 2.806204,0 5.081081,-2.274877 5.081081,-5.081082 v -8.003693 c 3.401335,-0.987131 6.680979,-2.34952 9.780089,-4.063873 l 5.716216,5.716215 c 1.975745,1.936619 5.139752,1.936619 7.115498,0 l 2.793602,-2.793602 c 1.936616,-1.975746 1.936616,-5.139753 0,-7.115498 l -5.716215,-5.716216 c 1.714353,-3.09911 3.076742,-6.378754 4.063873,-9.780089 h 8.003693 C 94.725124,60.162162 97,57.887285 97,55.081081 V 44.918919 c 0,-2.806204 -2.274876,-5.081081 -5.081082,-5.081081 h -8.003693 c -0.987131,-3.401335 -2.34952,-6.680979 -4.063873,-9.780089 l 5.716215,-5.716217 c 1.936616,-1.975744 1.936616,-5.139751 0,-7.115497 l -2.793602,-2.793602 c -1.975746,-1.936619 -5.139753,-1.936619 -7.115498,0 l -5.716216,5.716215 c -3.09911,-1.714354 -6.378754,-3.076743 -9.780089,-4.063873 V 8.0810812 C 60.162162,5.2748775 57.887285,3 55.081081,3 Z M 50,27.135135 a 22.864865,22.864865 0 0 1 0,45.729729 22.864865,22.864865 0 0 1 0,-45.729729 z m 0,10.162162 a 12.702703,12.702703 0 0 0 0,25.405406 12.702703,12.702703 0 0 0 0,-25.405406 z" />
</svg>
