<?xml version="1.0" encoding="UTF-8" standalone="no"?>
<svg
   viewBox="0 0 100 100"
   fill="currentColor"
   version="1.1"
   id="svg1"
   sodipodi:docname="shuffle.svg"
   inkscape:version="1.4.3 (0d15f75042, 2025-12-25)"
   width="100"
   height="100"
   xmlns:inkscape="http://www.inkscape.org/namespaces/inkscape"
   xmlns:sodipodi="http://sodipodi.sourceforge.net/DTD/sodipodi-0.dtd"
   xmlns="http://www.w3.org/2000/svg"
   xmlns:svg="http://www.w3.org/2000/svg">
  <defs
     id="defs1" />
  <sodipodi:namedview
     id="namedview1"
     pagecolor="#505050"
     bordercolor="#ffffff"
     borderopacity="1"
     inkscape:showpageshadow="0"
     inkscape:pageopacity="0"
     inkscape:pagecheckerboard="1"
     inkscape:deskcolor="#505050"
     inkscape:zoom="4"
     inkscape:cx="33.375"
     inkscape:cy="35"
     inkscape:window-width="1920"
     inkscape:window-height="1052"
     inkscape:window-x="0"
     inkscape:window-y="0"
     inkscape:window-maximized="1"
     inkscape:current-layer="layer1" />
  <g
     inkscape:groupmode="layer"
     id="layer1"
     inkscape:label="Bottom-to-Top">
    <path
       d="m 82.855021,8.5467925 c -4.637283,-4.637284 -11.593213,2.3186465 -6.95593,6.9559295 l 6.368105,6.31912 C 46.679373,17.432331 41.791293,75.185414 23.533667,75.185414 H 5.8989142 c -6.53138726,0 -6.53138726,9.797087 0,9.797087 H 23.533667 c 25.42587,-1.697657 32.949508,-56.75598 58.733529,-54.343283 l -6.368105,6.368105 c -4.637284,4.637284 2.318646,11.593214 6.95593,6.955931 L 97.550649,29.267626 c 1.93197,-1.916197 1.93197,-5.039733 0,-6.955931 z"
       id="path2"
       sodipodi:nodetypes="cccsssccssccc"
       style="fill:currentColor;stroke-width:4.89854" />
  </g>
  <g
     inkscape:groupmode="layer"
     id="layer2"
     inkscape:label="Top-to-Bottom">
    <path
       d="m 82.855021,91.453206 c -4.637283,4.637284 -11.593213,-2.318647 -6.95593,-6.95593 l 6.368105,-6.319119 C 51.51709,81.970968 44.912761,24.814587 23.533667,24.814587 H 5.898914 c -6.53138699,0 -6.53138699,-9.797087 0,-9.797087 h 17.634753 c 28.617445,1.910755 36.134589,56.457939 58.733529,54.343281 l -6.368105,-6.368105 c -4.637284,-4.637284 2.318646,-11.593214 6.95593,-6.955931 l 14.695628,14.695628 c 1.93197,1.916197 1.93197,5.039733 0,6.955931 z"
       id="path2-5"
       sodipodi:nodetypes="cccsssccssccc"
       style="fill:currentColor;stroke-width:4.89854" />
  </g>
</svg>
