<?xml version="1.0" encoding="UTF-8" standalone="no"?>
<svg
   viewBox="0 0 100 100"
   fill="currentColor"
   version="1.1"
   id="svg1"
   sodipodi:docname="volume.svg"
   width="100"
   height="100"
   inkscape:version="1.4.3 (0d15f75042, 2025-12-25)"
   xmlns:inkscape="http://www.inkscape.org/namespaces/inkscape"
   xmlns:sodipodi="http://sodipodi.sourceforge.net/DTD/sodipodi-0.dtd"
   xmlns="http://www.w3.org/2000/svg"
   xmlns:svg="http://www.w3.org/2000/svg">
  <defs
     id="defs1" />
  <sodipodi:namedview
     id="namedview1"
     pagecolor="#505050"
     bordercolor="#ffffff"
     borderopacity="1"
     inkscape:showpageshadow="0"
     inkscape:pageopacity="0"
     inkscape:pagecheckerboard="1"
     inkscape:deskcolor="#505050"
     inkscape:zoom="4.3958333"
     inkscape:cx="55.165877"
     inkscape:cy="62.331753"
     inkscape:window-width="1920"
     inkscape:window-height="1052"
     inkscape:window-x="0"
     inkscape:window-y="0"
     inkscape:window-maximized="1"
     inkscape:current-layer="svg1" />
  <path
     d="m 59.168026,3.3926309 a 5.2249543,5.2249648 0 0 1 3.239472,4.8069677 V 91.799036 a 5.2249543,5.2249648 0 0 1 -8.464426,4.075472 L 29.803783,76.124141 H 15.382909 A 10.449909,10.44993 0 0 1 4.933,65.674212 V 34.324423 A 10.449909,10.44993 0 0 1 15.382909,23.874493 H 29.803783 L 53.943072,4.124126 A 5.2249543,5.2249648 0 0 1 59.168026,3.3926309 Z M 80.903837,31.502942 a 5.2249543,5.2249648 0 0 1 7.419435,0 28.737249,28.737307 0 0 1 0,36.992751 5.2463333,5.2463438 0 0 1 -7.419435,-7.419451 18.28734,18.287377 0 0 0 0,-22.15385 5.2249543,5.2249648 0 0 1 0,-7.41945 z"
     id="path1"
     style="stroke-width:5.22495;fill:currentColor" />
</svg>
